# xmcd
#
# Track frame offsets:
#        150
#        25472
#        52410
#        79550
#        109822
#        137967
#        171805
#        200190
#        229745
#        270237
#        302340
#        339590
#
# Disc length: 4795 seconds
#
# Revision: 0
# Processed by: cddbd v1.5.1PL0 Copyright (c) Steve Scherf et al.
# Submitted via: ExactAudioCopy v0.95a5
#
DISCID=a912b90c
DTITLE=Various Artist - King Of New York - King Street Sounds 10th Anniversar
DTITLE=y Compilation [CD2]
DYEAR=2003
DGENRE=House
TTITLE0=Give It Up (Maw Flute Mix) - Rain, A Lil Louis Painting
TTITLE1=Coro (Kaoz 6:23" Dark Mix - Kerri "Kaoz 6:23" Chandler
TTITLE2=Moments In My Life (Abstract Jazz Mix) - MKL vs Soy Sos
TTITLE3=Cascades Of Coulor (Wamdue Black Mix) - Ananda Project - (feat
TTITLE3=Gaelle Adisson)
TTITLE4=The Real Thing (Ricanstruction Edit) - Frankie Feliciano
TTITLE5=Let Yourself Go - Mateo and Matos presents Release
TTITLE6=Sunshine (Miquifaye Original Edit) - Anthony Nicholson - (feat
TTITLE6=Charlotte Hunt)
TTITLE7=Back 2 Chicago (Smitty's Deep Dub) - Infinity - (feat. Malik)
TTITLE8=I Can't Believe I Loved Her (Main Mix) - Peven Everett
TTITLE9=Star Suite (Shelter Vocal Mix) -A Danny Krivit Edit - Mondo Gr
TTITLE9=osso
TTITLE10=Winners (Larry Levan Demo Mix) - Man Friday
TTITLE11=data
EXTD=
EXTT0=
EXTT1=
EXTT2=
EXTT3=
EXTT4=
EXTT5=
EXTT6=
EXTT7=
EXTT8=
EXTT9=
EXTT10=
EXTT11=
PLAYORDER=
